<svg width="252" height="76" xmlns="http://www.w3.org/2000/svg"><defs><linearGradient x1="61.039%" y1="4.961%" x2="26.501%" y2="71.903%" id="a"><stop stop-color="#3494D1" offset="0%"/><stop stop-color="#3295D1" offset=".657%"/><stop stop-color="#00B8ED" offset="26.01%"/><stop stop-color="#00BFEC" offset="51.22%"/><stop stop-color="#09C0E4" offset="76.04%"/><stop stop-color="#1AC0E2" offset="100%"/></linearGradient><linearGradient x1="107.589%" y1="50.006%" x2="-130.465%" y2="50.006%" id="b"><stop stop-color="#FCE000" offset="0%"/><stop stop-color="#FCB912" offset="40.87%"/><stop stop-color="#F89F1B" offset="77.54%"/><stop stop-color="#F7951D" offset="100%"/></linearGradient><linearGradient x1="86.249%" y1="30.916%" x2="-50.145%" y2="135.968%" id="c"><stop stop-color="#ED2845" offset="0%"/><stop stop-color="#D21A68" offset="100%"/></linearGradient><linearGradient x1="-18.809%" y1="-11.833%" x2="42.096%" y2="35.078%" id="d"><stop stop-color="#00A26D" offset="0%"/><stop stop-color="#00A96C" offset="6.85%"/><stop stop-color="#00B061" offset="47.62%"/><stop stop-color="#00B052" offset="80.09%"/><stop stop-color="#1DB14C" offset="100%"/></linearGradient></defs><g fill="none"><path d="M242.668 74.807H9.363c-5.132 0-9.332-4.198-9.332-9.328V9.504c0-5.13 4.2-9.329 9.332-9.329h233.305C247.8.175 252 4.374 252 9.504v55.972c0 5.133-4.2 9.331-9.332 9.331z" fill="#000"/><path d="M242.668 1.666c4.323 0 7.84 3.516 7.84 7.838v55.972c0 4.322-3.517 7.838-7.84 7.838H9.363c-4.323 0-7.84-3.516-7.84-7.838V9.504c0-4.322 3.517-7.838 7.84-7.838h233.305zm0-1.49H9.363C4.231.175.031 4.373.031 9.503v56.658c0 5.13 4.2 9.328 9.332 9.328l233.305-.685c5.132 0 9.332-4.199 9.332-9.329V9.504c0-5.13-4.2-9.329-9.332-9.329z" fill="#A6A4A4"/><path d="M127.201 40.759c-4.39 0-7.968 3.335-7.968 7.936 0 4.57 3.577 7.937 7.968 7.937s7.968-3.367 7.968-7.937c0-4.598-3.577-7.936-7.968-7.936zm0 12.744c-2.405 0-4.48-1.983-4.48-4.81 0-2.857 2.075-4.808 4.48-4.808 2.405 0 4.48 1.954 4.48 4.808 0 2.827-2.072 4.81-4.48 4.81zm-17.38-12.744c-4.392 0-7.969 3.335-7.969 7.936 0 4.57 3.577 7.937 7.968 7.937s7.968-3.367 7.968-7.937c0-4.598-3.58-7.936-7.968-7.936zm0 12.744c-2.406 0-4.48-1.983-4.48-4.81 0-2.857 2.074-4.808 4.48-4.808 2.404 0 4.48 1.954 4.48 4.808 0 2.827-2.076 4.81-4.48 4.81zm-20.68-10.309v3.367h8.06c-.24 1.894-.872 3.275-1.835 4.237-1.172 1.172-3.006 2.465-6.225 2.465-4.961 0-8.84-3.997-8.84-8.957 0-4.96 3.879-8.957 8.84-8.957 2.677 0 4.632 1.051 6.074 2.404l2.376-2.375c-2.015-1.923-4.692-3.396-8.45-3.396-6.796 0-12.508 5.53-12.508 12.324 0 6.793 5.712 12.323 12.508 12.323 3.669 0 6.435-1.203 8.599-3.455 2.224-2.224 2.918-5.35 2.918-7.877 0-.782-.06-1.504-.18-2.103H89.141zm84.565 2.616c-.662-1.774-2.677-5.049-6.796-5.049-4.09 0-7.486 3.215-7.486 7.937 0 4.45 3.368 7.937 7.879 7.937 3.637 0 5.744-2.224 6.615-3.516l-2.706-1.803c-.902 1.324-2.135 2.195-3.91 2.195-1.773 0-3.037-.81-3.848-2.404l10.613-4.39-.36-.907zm-10.826 2.645c-.091-3.066 2.377-4.63 4.15-4.63 1.385 0 2.557.69 2.947 1.681l-7.097 2.949zm-8.63 7.693h3.488V32.822h-3.488v23.326zm-5.712-13.616h-.12c-.783-.931-2.285-1.773-4.18-1.773-3.97 0-7.607 3.487-7.607 7.965 0 4.45 3.638 7.905 7.607 7.905 1.895 0 3.397-.842 4.18-1.802h.12v1.143c0 3.037-1.623 4.66-4.24 4.66-2.135 0-3.456-1.534-3.998-2.826l-3.038 1.263c.871 2.104 3.187 4.69 7.036 4.69 4.09 0 7.547-2.403 7.547-8.266V41.243h-3.307v1.29zm-3.999 10.971c-2.405 0-4.42-2.014-4.42-4.779 0-2.796 2.015-4.84 4.42-4.84 2.376 0 4.24 2.044 4.24 4.84 0 2.765-1.866 4.78-4.24 4.78zm45.504-20.678H181.7V56.15h3.483v-8.837h4.862c3.86 0 7.654-2.794 7.654-7.243.003-4.453-3.791-7.246-7.654-7.246zm.092 11.24h-4.954v-7.994h4.954c2.603 0 4.082 2.155 4.082 3.997 0 1.808-1.479 3.997-4.082 3.997zm21.523-3.348c-2.523 0-5.134 1.109-6.215 3.57l3.093 1.29c.66-1.29 1.892-1.71 3.182-1.71 1.8 0 3.632 1.08 3.664 3v.24c-.63-.36-1.981-.9-3.632-.9-3.332 0-6.726 1.832-6.726 5.253 0 3.121 2.732 5.133 5.794 5.133 2.342 0 3.632-1.05 4.443-2.281h.12v1.8h3.363V47.17c-.002-4.143-3.095-6.453-7.086-6.453zm-.421 12.781c-1.141 0-2.732-.57-2.732-1.98 0-1.8 1.98-2.49 3.692-2.49 1.531 0 2.25.33 3.182.78-.27 2.16-2.13 3.69-4.142 3.69zm19.752-12.271l-3.994 10.113h-.117l-4.143-10.113h-3.752l6.215 14.134-3.544 7.86h3.632l9.575-21.994h-3.872zm-31.368 14.921h3.483V32.822h-3.483v23.326z" fill="#FFF"/><path d="M.929.897C.387 1.473.065 2.362.065 3.518v41.266c0 1.157.322 2.049.864 2.622l.139.133L24.19 24.425v-.544L1.068.764.929.897z" fill="url(#a)" transform="translate(18.58 13.341)"/><path d="M31.896 32.131l-7.706-7.709v-.544l7.71-7.706.172.099 9.132 5.187c2.61 1.481 2.61 3.906 0 5.39l-9.132 5.187-.176.096z" fill="url(#b)" transform="translate(18.58 13.341)"/><path d="M32.072 32.032L24.19 24.15.929 47.403c.86.91 2.28 1.023 3.878.115l27.265-15.486" fill="url(#c)" transform="translate(18.58 13.341)"/><path d="M32.072 16.271L4.807.785C3.208-.123 1.787-.01.93.9l23.26 23.253 7.883-7.882z" fill="url(#d)" transform="translate(18.58 13.341)"/><g fill="#000"><path d="M50.479 45.2L23.387 60.587c-1.516.86-2.871.803-3.74.021l-.139.139.14.133c.868.782 2.223.843 3.739-.02L50.65 45.372l-.172-.173z" opacity=".2"/><path d="M19.508 60.475c-.541-.576-.863-1.465-.863-2.621v.272c0 1.156.322 2.045.863 2.62l.14-.138-.14-.133z" opacity=".12"/></g><path d="M59.784 39.914L50.479 45.2l.172.173 9.133-5.187c1.303-.74 1.957-1.716 1.957-2.692-.11.882-.774 1.747-1.957 2.42z" fill="#000" opacity=".12"/><path d="M23.387 14.398l36.397 20.674c1.183.672 1.847 1.538 1.957 2.422 0-.976-.651-1.954-1.957-2.694L23.387 14.126c-2.61-1.48-4.742-.251-4.742 2.736v.272c0-2.987 2.133-4.217 4.742-2.736z" fill="#FFF" opacity=".25"/><path d="M76.532 24V13.01h3.436c1.727 0 3.105.51 4.142 1.529 1.035 1.017 1.552 2.34 1.552 3.967 0 1.628-.517 2.95-1.552 3.968-1.037 1.02-2.417 1.528-4.142 1.528h-3.436v-.003zm1.441-1.352h1.992c1.297 0 2.323-.362 3.082-1.091.759-.727 1.137-1.746 1.137-3.053 0-1.3-.378-2.314-1.137-3.048-.759-.732-1.788-1.097-3.082-1.097h-1.992v8.29zM87.688 24V13.01h1.444V24zm7.185.246c-.817 0-1.612-.26-2.392-.781-.78-.521-1.291-1.253-1.53-2.196l1.318-.52c.157.603.477 1.111.963 1.524.488.414 1.034.622 1.64.622.628 0 1.166-.162 1.61-.483.444-.32.667-.76.667-1.312 0-.614-.22-1.086-.667-1.42-.444-.334-1.147-.642-2.11-.93-.995-.305-1.749-.703-2.26-1.189-.513-.485-.77-1.107-.77-1.864 0-.788.32-1.474.958-2.057.638-.583 1.47-.876 2.494-.876.953 0 1.727.234 2.323.699.596.465.984.976 1.16 1.528l-1.315.536c-.094-.346-.328-.67-.698-.965-.37-.295-.85-.444-1.436-.444-.554 0-1.026.149-1.417.452-.394.303-.588.678-.588 1.127 0 .408.18.755.54 1.037.363.28.893.535 1.594.76a13.81 13.81 0 0 1 1.388.506c.37.162.749.38 1.13.653.382.27.669.608.863 1.014.194.403.291.873.291 1.405 0 .531-.113 1.009-.336 1.427a2.718 2.718 0 0 1-.895 1 4.51 4.51 0 0 1-1.2.56 4.86 4.86 0 0 1-1.325.187zm7.263-.246h-1.444V13.01h3.83c.95 0 1.775.309 2.47.928.696.619 1.045 1.4 1.045 2.342 0 .94-.346 1.72-1.045 2.34-.695.618-1.52.929-2.47.929h-2.386v4.45zm0-5.802h2.418c.606 0 1.094-.198 1.46-.598.364-.4.548-.84.548-1.32 0-.48-.184-.922-.549-1.32-.365-.4-.853-.598-1.46-.598h-2.417v3.836zm16.905 4.381c-1.105 1.112-2.478 1.664-4.119 1.664-1.643 0-3.016-.555-4.118-1.664-1.105-1.11-1.654-2.468-1.654-4.075 0-1.608.551-2.966 1.654-4.076 1.102-1.112 2.475-1.666 4.118-1.666 1.633 0 3.003.557 4.111 1.674 1.108 1.115 1.662 2.47 1.662 4.068 0 1.607-.551 2.966-1.654 4.075zm-7.171-.92c.832.825 1.848 1.236 3.052 1.236 1.203 0 2.221-.411 3.05-1.235.833-.825 1.25-1.875 1.25-3.154s-.417-2.331-1.25-3.153c-.829-.824-1.847-1.235-3.05-1.235-1.202 0-2.22.41-3.052 1.235-.83.824-1.247 1.874-1.247 3.153 0 1.277.417 2.33 1.247 3.154zM122.721 24V13.01h1.756l5.46 8.55H130l-.063-2.119v-6.43h1.444v10.988h-1.507l-5.711-8.962h-.063l.063 2.119v6.846h-1.442zm11.235 0V13.01h1.444V24zm4.014 0V13.01h4.063c.88 0 1.641.286 2.284.853.643.57.966 1.282.966 2.142 0 .521-.139.984-.417 1.382-.276.4-.646.7-1.105.906v.062c.554.185 1.01.5 1.365.952.354.452.533.974.533 1.567 0 .901-.339 1.646-1.014 2.24-.674.592-1.472.89-2.394.89h-4.281V24zm1.444-6.28h2.62c.546 0 .981-.174 1.31-.529.328-.351.493-.74.493-1.158 0-.418-.16-.803-.48-1.15-.318-.35-.738-.521-1.263-.521h-2.68v3.358zm0 4.928h2.903c.554 0 1.003-.19 1.35-.57.346-.377.516-.793.516-1.243 0-.449-.178-.86-.532-1.235-.355-.372-.822-.56-1.397-.56h-2.84v3.608zm8.19 1.352V13.01h1.443v9.64h4.865v1.352h-6.308zm14.686-9.638h-5.115v3.484h4.612v1.32h-4.612v3.485h5.116V24h-6.56V13.01h6.56zm12.582 0h-5.116v3.484h4.612v1.32h-4.612v3.485h5.116V24h-6.557V13.01h6.557v1.35zM177.13 24V13.01h1.756l5.46 8.55h.063l-.063-2.119v-6.43h1.444v10.988h-1.507l-5.712-8.962h-.063l.063 2.119v6.846h-1.441z" fill="#FFF" stroke="#FFF" stroke-width=".2"/></g></svg>