<svg width="225" height="76" xmlns="http://www.w3.org/2000/svg" xmlns:xlink="http://www.w3.org/1999/xlink"><defs><path id="a" d="M0 .084h224.82V76H0z"/><path id="c" d="M0 76h225V0H0z"/></defs><g fill="none" fill-rule="evenodd"><mask id="b" fill="#fff"><use xlink:href="#a"/></mask><path d="M206.917.084H17.913c-.689 0-1.37 0-2.056.004-.576.003-1.146.015-1.727.024-1.25.031-2.516.11-3.765.335a12.433 12.433 0 0 0-3.57 1.19 12.102 12.102 0 0 0-3.042 2.237c-.9.9-1.644 1.94-2.214 3.077a12.616 12.616 0 0 0-1.174 3.612c-.227 1.257-.304 2.528-.337 3.8C.011 14.945.01 15.529 0 16.11v43.87c.01.59.01 1.16.028 1.75.033 1.271.11 2.543.337 3.8.22 1.27.59 2.463 1.174 3.613a11.775 11.775 0 0 0 2.214 3.064 11.81 11.81 0 0 0 3.041 2.237 12.49 12.49 0 0 0 3.571 1.197c1.249.227 2.515.3 3.765.336.58.013 1.151.02 1.727.02.687.004 1.367.004 2.056.004h189.004c.675 0 1.36 0 2.036-.004.573 0 1.16-.007 1.732-.02 1.26-.035 2.521-.11 3.758-.336a12.7 12.7 0 0 0 3.585-1.197 11.805 11.805 0 0 0 3.038-2.237 12.132 12.132 0 0 0 2.22-3.064c.576-1.15.95-2.342 1.163-3.614.232-1.256.305-2.528.349-3.8.007-.589.007-1.16.007-1.749.015-.69.015-1.375.015-2.076v-39.72c0-.695 0-1.385-.015-2.073 0-.581 0-1.165-.007-1.747-.044-1.272-.117-2.543-.349-3.8a12.658 12.658 0 0 0-1.163-3.612 12.23 12.23 0 0 0-5.258-5.314 12.625 12.625 0 0 0-3.585-1.19c-1.237-.226-2.499-.304-3.758-.335-.572-.01-1.16-.02-1.732-.024-.675-.004-1.361-.004-2.036-.004" fill="#B5B5B6" mask="url(#b)"/><path d="M15.255 74.996a73.96 73.96 0 0 1-1.702-.02c-1.053-.03-2.301-.09-3.52-.312a10.949 10.949 0 0 1-3.118-1.045 10.188 10.188 0 0 1-2.63-1.94 10.154 10.154 0 0 1-1.922-2.665c-.488-.964-.822-1.998-1.022-3.163-.23-1.284-.289-2.587-.313-3.578C1.016 61.87 1 60.53 1 60.53V16.445s.017-1.32.028-1.707c.024-1 .083-2.302.311-3.573.202-1.171.535-2.204 1.023-3.171a10.249 10.249 0 0 1 1.912-2.669 10.48 10.48 0 0 1 2.64-1.95 10.856 10.856 0 0 1 3.112-1.039c1.268-.23 2.553-.288 3.531-.313L15.256 2h193.478l1.72.024c.965.024 2.25.082 3.498.31 1.135.202 2.16.544 3.146 1.046a10.623 10.623 0 0 1 4.547 4.618c.485.976.816 2.01 1.007 3.147.219 1.204.287 2.44.328 3.602.005.54.005 1.12.005 1.698.015.716.015 1.397.015 2.084v39.94c0 .693 0 1.37-.015 2.052 0 .62 0 1.189-.007 1.774-.039 1.124-.107 2.36-.322 3.537a11.057 11.057 0 0 1-1.017 3.187 10.457 10.457 0 0 1-1.912 2.645 10.2 10.2 0 0 1-2.634 1.951c-.977.503-1.973.837-3.14 1.05-1.207.221-2.455.28-3.52.31-.551.014-1.128.021-1.69.021l-2.04.004-191.448-.004z" fill="#000"/><path d="M46.562 39.255c-.046-5.328 4.196-7.92 4.39-8.042-2.402-3.641-6.126-4.14-7.434-4.178-3.128-.342-6.16 1.946-7.754 1.946-1.625 0-4.08-1.913-6.722-1.856-3.402.055-6.585 2.103-8.331 5.283-3.603 6.485-.916 16.015 2.535 21.257 1.727 2.567 3.744 5.434 6.385 5.332 2.583-.111 3.548-1.713 6.667-1.713 3.09 0 3.995 1.713 6.689 1.649 2.772-.047 4.519-2.578 6.185-5.17 1.995-2.943 2.796-5.84 2.828-5.989-.065-.022-5.385-2.132-5.438-8.52M40.93 23.247c1.356-1.67 2.285-3.941 2.027-6.247-1.963.086-4.419 1.336-5.832 2.97-1.25 1.439-2.368 3.798-2.08 6.016 2.206.161 4.47-1.095 5.886-2.739M71.902 48.52h7.13l-3.514-10.528h-.099L71.902 48.52zm8.065 2.993H70.97L68.81 58H65l8.52-24h3.96L86 58h-3.875l-2.158-6.487zm20.449-1.759c0-3.471-1.777-5.754-4.488-5.754-2.664 0-4.456 2.33-4.456 5.754 0 3.455 1.792 5.77 4.456 5.77 2.711 0 4.488-2.267 4.488-5.77m3.584 0c0 5.33-2.825 8.753-7.089 8.753-2.42 0-4.342-1.093-5.344-3h-.08V64H88V41.18h3.375v2.851h.064c.969-1.84 3.036-3.031 5.408-3.031 4.311 0 7.153 3.44 7.153 8.754m14.416 0c0-3.471-1.777-5.754-4.488-5.754-2.664 0-4.456 2.33-4.456 5.754 0 3.455 1.792 5.77 4.456 5.77 2.711 0 4.488-2.267 4.488-5.77m3.584 0c0 5.33-2.825 8.753-7.088 8.753-2.42 0-4.343-1.093-5.345-3h-.08V64H106V41.18h3.375v2.851h.064c.97-1.84 3.036-3.031 5.408-3.031 4.312 0 7.153 3.44 7.153 8.754m12.594 1.387c.26 2.304 2.52 3.816 5.609 3.816 2.96 0 5.089-1.512 5.089-3.589 0-1.803-1.285-2.882-4.325-3.622l-3.04-.725c-4.309-1.03-6.309-3.025-6.309-6.261 0-4.007 3.528-6.76 8.537-6.76 4.958 0 8.356 2.753 8.47 6.76h-3.544c-.212-2.318-2.147-3.717-4.976-3.717-2.828 0-4.763 1.415-4.763 3.476 0 1.642 1.236 2.608 4.26 3.348l2.584.628C147 45.622 149 47.536 149 50.933c0 4.346-3.496 7.067-9.057 7.067-5.203 0-8.716-2.657-8.943-6.859h3.594zM156.841 37v4H160v2.748h-3.159v9.318c0 1.448.632 2.123 2.021 2.123.348 0 .902-.05 1.122-.08v2.73c-.378.097-1.136.161-1.894.161-3.363 0-4.675-1.285-4.675-4.564v-9.688H151V41h2.415v-4h3.426zm17.631 13c0-3.791-1.668-6.029-4.473-6.029-2.805 0-4.471 2.255-4.471 6.03 0 3.805 1.666 6.026 4.471 6.026s4.473-2.22 4.473-6.027M162 50c0-5.527 3.125-9 7.999-9 4.89 0 8.001 3.473 8.001 9 0 5.542-3.095 9-8.001 9-4.904 0-7.999-3.458-7.999-9m18-8.814h3.063v3.033h.074c.491-2.016 1.918-3.219 3.763-3.219.46 0 .847.07 1.1.137v3.42c-.253-.12-.818-.221-1.443-.221-2.067 0-3.346 1.593-3.346 4.098V59H180V41.186zm13.418 7.194h8.21c-.078-2.689-1.686-4.458-4.028-4.458-2.326 0-4.01 1.804-4.182 4.458zm11.394 5.243c-.453 3.188-3.356 5.377-7.07 5.377-4.777 0-7.742-3.424-7.742-8.917 0-5.51 2.98-9.083 7.6-9.083 4.543 0 7.4 3.339 7.4 8.664V50.9h-11.598v.218c0 3.005 1.764 4.975 4.418 4.975 1.872 0 3.34-.95 3.792-2.47h3.2zM67 22.004C67 18.293 68.792 16 71.68 16c2.288 0 4.06 1.634 4.32 3.966h-1.607c-.302-1.404-1.347-2.308-2.713-2.308-1.866 0-3.032 1.673-3.032 4.346 0 2.666 1.166 4.338 3.038 4.338 1.376 0 2.42-.816 2.707-2.109H76C75.71 26.493 74.006 28 71.686 28 68.8 28 67 25.708 67 22.004m18.278 1.993c0-1.67-.826-2.646-2.275-2.646-1.455 0-2.274.976-2.274 2.646 0 1.683.819 2.652 2.274 2.652 1.45 0 2.275-.976 2.275-2.652m-6.278 0C79 21.513 80.527 20 83.003 20 85.473 20 87 21.513 87 23.997 87 26.493 85.48 28 83.003 28 80.52 28 79 26.493 79 23.997m9-3.845h1.566v1.246h.121c.4-.872 1.22-1.398 2.46-1.398C93.987 20 95 21.052 95 22.92V28h-1.627v-4.692c0-1.261-.575-1.888-1.778-1.888s-1.968.764-1.968 1.988V28H88v-7.848zM101.516 20c1.909 0 3.156.806 3.32 2.164h-1.607c-.154-.565-.764-.926-1.713-.926-.935 0-1.646.403-1.646 1.004 0 .46.429.75 1.35.941l1.41.297c1.614.34 2.37.97 2.37 2.101 0 1.45-1.489 2.419-3.516 2.419-2.019 0-3.335-.828-3.484-2.192h1.677c.21.594.834.96 1.846.96 1.044 0 1.786-.423 1.786-1.039 0-.46-.398-.757-1.248-.94l-1.48-.312c-1.615-.347-2.362-1.004-2.362-2.15 0-1.365 1.379-2.327 3.297-2.327" fill="#FFF"/><mask id="d" fill="#fff"><use xlink:href="#c"/></mask><path d="M106.177 28h1.701v-8.765h-1.701V28zM106 17.769L107.996 15H110l-2.235 2.769H106zm11.34 6.556c0-1.709-.882-2.804-2.322-2.804-1.454 0-2.272 1.095-2.272 2.804 0 1.71.818 2.805 2.272 2.805 1.45 0 2.323-1.086 2.323-2.805m-6.003 5.256h1.73c.143.622.858 1.024 1.999 1.024 1.408 0 2.242-.67 2.242-1.804v-1.647h-.126c-.52.93-1.464 1.442-2.644 1.442-2.186 0-3.539-1.694-3.539-4.263 0-2.616 1.367-4.333 3.556-4.333 1.18 0 2.209.583 2.69 1.513h.134v-1.37H119v8.65c0 1.962-1.535 3.207-3.957 3.207-2.14 0-3.525-.961-3.705-2.42M129 27.848h-1.562v-1.246h-.128c-.399.893-1.236 1.398-2.481 1.398-1.816 0-2.829-1.06-2.829-2.905V20h1.623v4.692c0 1.268.534 1.874 1.726 1.874 1.313 0 2.029-.743 2.029-1.975V20H129v7.848zm3.551-4.558h3.898c-.035-1.21-.772-1.996-1.9-1.996-1.126 0-1.913.793-1.998 1.995zm5.357 2.481c-.346 1.38-1.58 2.229-3.344 2.229-2.21 0-3.564-1.514-3.564-3.976 0-2.461 1.382-4.024 3.558-4.024 2.147 0 3.442 1.464 3.442 3.883v.53h-5.449v.086c.05 1.35.837 2.206 2.055 2.206.922 0 1.553-.332 1.836-.934h1.466zM140 28h2V16h-2zm11.278-4.003c0-1.67-.826-2.646-2.275-2.646-1.455 0-2.274.976-2.274 2.646 0 1.683.819 2.652 2.274 2.652 1.45 0 2.275-.976 2.275-2.652m-6.278 0c0-2.484 1.527-3.997 4.003-3.997 2.47 0 3.997 1.513 3.997 3.997 0 2.496-1.52 4.003-3.997 4.003-2.483 0-4.003-1.507-4.003-4.003m16.551-.707h3.898c-.035-1.21-.772-1.996-1.9-1.996-1.126 0-1.912.793-1.998 1.995zm5.357 2.481c-.346 1.38-1.58 2.229-3.344 2.229-2.21 0-3.564-1.514-3.564-3.976 0-2.461 1.382-4.024 3.558-4.024 2.147 0 3.442 1.464 3.442 3.883v.53h-5.449v.086c.05 1.35.837 2.206 2.055 2.206.923 0 1.553-.332 1.836-.934h1.466zM170 20.152h1.566v1.246h.121c.4-.872 1.22-1.398 2.46-1.398 1.84 0 2.853 1.052 2.853 2.92V28h-1.627v-4.692c0-1.261-.575-1.888-1.778-1.888s-1.968.764-1.968 1.988V28H170v-7.848zm15.551 3.138h3.898c-.035-1.21-.772-1.996-1.9-1.996-1.126 0-1.913.793-1.998 1.995zm5.357 2.481c-.346 1.38-1.58 2.229-3.344 2.229-2.21 0-3.564-1.514-3.564-3.976 0-2.461 1.382-4.024 3.558-4.024 2.147 0 3.442 1.464 3.442 3.883v.53h-5.449v.086c.05 1.35.837 2.206 2.055 2.206.922 0 1.553-.332 1.836-.934h1.466zM193 28h2V16h-2z" fill="#FFF" mask="url(#d)"/></g></svg>